<svg width="334" height="52" xmlns="http://www.w3.org/2000/svg" fill="none">
 <mask height="45" width="50" y="3" x="0" maskUnits="userSpaceOnUse" mask-type="alpha" id="mask0">
  <path id="svg_1" fill="white" d="m47.0305,3l-0.771,0l0,2.34375c0,0.77344 -0.5204,1.40625 -1.1565,1.40625l-3.8549,0c-0.6361,0 -1.1565,-0.63281 -1.1565,-1.40625l0,-2.34375l-30.8397,0l0,2.34375c0,0.77344 -0.52041,1.40625 -1.15648,1.40625l-3.85496,0c-0.63607,0 -1.15649,-0.63281 -1.15649,-1.40625l0,-2.34375l-0.77099,0c-1.28178,0 -2.31298,1.25391 -2.31298,2.8125l0,39.375c0,1.5586 1.0312,2.8125 2.31298,2.8125l0.77099,0l0,-2.3438c0,-0.7734 0.52042,-1.4062 1.15649,-1.4062l3.85496,0c0.63607,0 1.15648,0.6328 1.15648,1.4062l0,2.3438l30.8397,0l0,-2.3438c0,-0.7734 0.5204,-1.4062 1.1565,-1.4062l3.8549,0c0.6361,0 1.1565,0.6328 1.1565,1.4062l0,2.3438l0.771,0c1.2818,0 2.313,-1.2539 2.313,-2.8125l0,-39.375c0,-1.55859 -1.0312,-2.8125 -2.313,-2.8125zm-37.7786,36.0937c0,0.7735 -0.52041,1.4063 -1.15648,1.4063l-3.85496,0c-0.63607,0 -1.15649,-0.6328 -1.15649,-1.4063l0,-4.6874c0,-0.7735 0.52042,-1.4063 1.15649,-1.4063l3.85496,0c0.63607,0 1.15648,0.6328 1.15648,1.4063l0,4.6874zm0,-11.25c0,0.7735 -0.52041,1.4063 -1.15648,1.4063l-3.85496,0c-0.63607,0 -1.15649,-0.6328 -1.15649,-1.4063l0,-4.6875c0,-0.7734 0.52042,-1.4062 1.15649,-1.4062l3.85496,0c0.63607,0 1.15648,0.6328 1.15648,1.4062l0,4.6875zm0,-11.2499c0,0.7734 -0.52041,1.4062 -1.15648,1.4062l-3.85496,0c-0.63607,0 -1.15649,-0.6328 -1.15649,-1.4062l0,-4.6875c0,-0.7735 0.52042,-1.4063 1.15649,-1.4063l3.85496,0c0.63607,0 1.15648,0.6328 1.15648,1.4063l0,4.6875zm26.2137,24.3749c0,0.7735 -0.5204,1.4063 -1.1565,1.4063l-19.2748,0c-0.636,0 -1.1564,-0.6328 -1.1564,-1.4063l0,-11.25c0,-0.7734 0.5204,-1.4062 1.1564,-1.4062l19.2748,0c0.6361,0 1.1565,0.6328 1.1565,1.4062l0,11.25zm0,-19.6875c0,0.7735 -0.5204,1.4063 -1.1565,1.4063l-19.2748,0c-0.636,0 -1.1564,-0.6328 -1.1564,-1.4063l0,-11.25c0,-0.77339 0.5204,-1.4062 1.1564,-1.4062l19.2748,0c0.6361,0 1.1565,0.63281 1.1565,1.4062l0,11.25zm10.7939,17.8125c0,0.7735 -0.5204,1.4063 -1.1565,1.4063l-3.8549,0c-0.6361,0 -1.1565,-0.6328 -1.1565,-1.4063l0,-4.6874c0,-0.7735 0.5204,-1.4063 1.1565,-1.4063l3.8549,0c0.6361,0 1.1565,0.6328 1.1565,1.4063l0,4.6874zm0,-11.25c0,0.7735 -0.5204,1.4063 -1.1565,1.4063l-3.8549,0c-0.6361,0 -1.1565,-0.6328 -1.1565,-1.4063l0,-4.6875c0,-0.7734 0.5204,-1.4062 1.1565,-1.4062l3.8549,0c0.6361,0 1.1565,0.6328 1.1565,1.4062l0,4.6875zm0,-11.2499c0,0.7734 -0.5204,1.4062 -1.1565,1.4062l-3.8549,0c-0.6361,0 -1.1565,-0.6328 -1.1565,-1.4062l0,-4.6875c0,-0.7735 0.5204,-1.4063 1.1565,-1.4063l3.8549,0c0.6361,0 1.1565,0.6328 1.1565,1.4063l0,4.6875z"/>
 </mask>

 <g>
  <title>Layer 1</title>
  <g id="svg_2" mask="url(#mask0)">
   <path id="svg_3" fill="white" d="m47.0305,3l-0.771,0l0,2.34375c0,0.77344 -0.5204,1.40625 -1.1565,1.40625l-3.8549,0c-0.6361,0 -1.1565,-0.63281 -1.1565,-1.40625l0,-2.34375l-30.8397,0l0,2.34375c0,0.77344 -0.52041,1.40625 -1.15648,1.40625l-3.85496,0c-0.63607,0 -1.15649,-0.63281 -1.15649,-1.40625l0,-2.34375l-0.77099,0c-1.28178,0 -2.31298,1.25391 -2.31298,2.8125l0,39.375c0,1.5586 1.0312,2.8125 2.31298,2.8125l0.77099,0l0,-2.3438c0,-0.7734 0.52042,-1.4062 1.15649,-1.4062l3.85496,0c0.63607,0 1.15648,0.6328 1.15648,1.4062l0,2.3438l30.8397,0l0,-2.3438c0,-0.7734 0.5204,-1.4062 1.1565,-1.4062l3.8549,0c0.6361,0 1.1565,0.6328 1.1565,1.4062l0,2.3438l0.771,0c1.2818,0 2.313,-1.2539 2.313,-2.8125l0,-39.375c0,-1.55859 -1.0312,-2.8125 -2.313,-2.8125zm-37.7786,36.0937c0,0.7735 -0.52041,1.4063 -1.15648,1.4063l-3.85496,0c-0.63607,0 -1.15649,-0.6328 -1.15649,-1.4063l0,-4.6874c0,-0.7735 0.52042,-1.4063 1.15649,-1.4063l3.85496,0c0.63607,0 1.15648,0.6328 1.15648,1.4063l0,4.6874zm0,-11.25c0,0.7735 -0.52041,1.4063 -1.15648,1.4063l-3.85496,0c-0.63607,0 -1.15649,-0.6328 -1.15649,-1.4063l0,-4.6875c0,-0.7734 0.52042,-1.4062 1.15649,-1.4062l3.85496,0c0.63607,0 1.15648,0.6328 1.15648,1.4062l0,4.6875zm0,-11.2499c0,0.7734 -0.52041,1.4062 -1.15648,1.4062l-3.85496,0c-0.63607,0 -1.15649,-0.6328 -1.15649,-1.4062l0,-4.6875c0,-0.7735 0.52042,-1.4063 1.15649,-1.4063l3.85496,0c0.63607,0 1.15648,0.6328 1.15648,1.4063l0,4.6875zm26.2137,24.3749c0,0.7735 -0.5204,1.4063 -1.1565,1.4063l-19.2748,0c-0.636,0 -1.1564,-0.6328 -1.1564,-1.4063l0,-11.25c0,-0.7734 0.5204,-1.4062 1.1564,-1.4062l19.2748,0c0.6361,0 1.1565,0.6328 1.1565,1.4062l0,11.25zm0,-19.6875c0,0.7735 -0.5204,1.4063 -1.1565,1.4063l-19.2748,0c-0.636,0 -1.1564,-0.6328 -1.1564,-1.4063l0,-11.25c0,-0.77339 0.5204,-1.4062 1.1564,-1.4062l19.2748,0c0.6361,0 1.1565,0.63281 1.1565,1.4062l0,11.25zm10.7939,17.8125c0,0.7735 -0.5204,1.4063 -1.1565,1.4063l-3.8549,0c-0.6361,0 -1.1565,-0.6328 -1.1565,-1.4063l0,-4.6874c0,-0.7735 0.5204,-1.4063 1.1565,-1.4063l3.8549,0c0.6361,0 1.1565,0.6328 1.1565,1.4063l0,4.6874zm0,-11.25c0,0.7735 -0.5204,1.4063 -1.1565,1.4063l-3.8549,0c-0.6361,0 -1.1565,-0.6328 -1.1565,-1.4063l0,-4.6875c0,-0.7734 0.5204,-1.4062 1.1565,-1.4062l3.8549,0c0.6361,0 1.1565,0.6328 1.1565,1.4062l0,4.6875zm0,-11.2499c0,0.7734 -0.5204,1.4062 -1.1565,1.4062l-3.8549,0c-0.6361,0 -1.1565,-0.6328 -1.1565,-1.4062l0,-4.6875c0,-0.7735 0.5204,-1.4063 1.1565,-1.4063l3.8549,0c0.6361,0 1.1565,0.6328 1.1565,1.4063l0,4.6875z"/>
  </g>
  <path id="svg_4" fill="white" d="m242.997,33.9648l0.244,1.1596c0,0.4883 -0.254,1.0681 -0.763,1.7395c-1.344,1.7496 -3.502,3.7636 -6.475,6.0422c-2.952,2.2582 -5.131,3.3873 -6.536,3.3873c-1.405,0 -2.504,-0.4069 -3.298,-1.2206c-0.794,-0.8341 -1.191,-1.7802 -1.191,-2.8381c0,-1.2613 1.323,-4.0485 3.97,-8.3615c3.97,-6.4084 9.04,-13.8951 15.209,-22.4601c-1.303,1.3428 -4.764,4.9641 -10.384,10.8639c-12.44,13.0203 -19.709,20.3951 -21.806,22.1244c-0.346,0.2848 -0.855,0.4272 -1.527,0.4272c-0.652,0 -1.344,-0.2644 -2.077,-0.7934c-0.733,-0.5493 -1.099,-1.1596 -1.099,-1.831l0,-0.1526c0.081,-0.8544 2.046,-5.0352 5.894,-12.5422c3.848,-7.5071 7.075,-13.4781 9.682,-17.9132c-3.849,4.2317 -7.737,8.9515 -11.667,14.1597c-7.472,9.8873 -12.939,18.3098 -16.401,25.2676c-0.305,0.651 -0.682,0.9765 -1.13,0.9765c-0.448,0 -1.099,-0.1119 -1.954,-0.3357c-1.792,-0.4882 -2.688,-1.3427 -2.688,-2.5634c0,-0.7324 1.497,-3.3466 4.49,-7.8427c2.993,-4.5164 6.464,-9.4397 10.414,-14.7699c3.95,-5.3506 8.043,-10.4977 12.278,-15.4414c5.843,-6.83563 9.6,-10.25347 11.269,-10.25347c0.265,0 0.52,0.0712 0.764,0.21361c0.244,0.12207 0.397,0.1831 0.458,0.1831c0.061,0 0.122,-0.03052 0.183,-0.09155c0.265,-0.32551 0.784,-0.48826 1.558,-0.48826c0.794,0 1.558,0.15258 2.291,0.45775c0.753,0.30516 1.13,0.65101 1.13,1.03755c0,0.24414 -1.019,2.18701 -3.055,5.82864c-6.82,12.08453 -11.402,20.38493 -13.743,24.90143c2.24,-2.7058 5.436,-6.2966 9.59,-10.7723c4.174,-4.4758 8.551,-8.9413 13.133,-13.39673c5.965,-5.77778 9.528,-8.66667 10.689,-8.66667c0.468,0 1.059,0.10172 1.771,0.30516c1.263,0.3662 2.474,0.5493 3.635,0.5493c0.326,0.06103 0.6,0.20344 0.824,0.42723c0.245,0.20344 0.367,0.41706 0.367,0.64085c0,0.22378 -0.061,0.40688 -0.183,0.54929c-6.618,8.78877 -12.197,16.53987 -16.737,23.25357c-4.54,6.7136 -7.34,11.2503 -8.399,13.6103c2.138,-0.4476 5.325,-3.0008 9.56,-7.6596c0.183,-0.2442 0.315,-0.4069 0.397,-0.4883c0.081,-0.0814 0.152,-0.1628 0.213,-0.2441c0.347,-0.4069 0.611,-0.1526 0.794,0.7629c0.082,0.5289 0.133,0.9053 0.153,1.1291c0.041,0.2034 0.071,0.4272 0.092,0.6713c0.041,0.2238 0.061,0.3764 0.061,0.4578z"/>
  <path id="svg_5" fill="white" d="m267.824,21.9718c0.611,0 1.232,0.2747 1.863,0.824c0.652,0.5493 0.978,1.3936 0.978,2.5328c0,1.119 -0.397,2.5838 -1.191,4.3944c-0.794,1.7903 -1.884,3.6213 -3.268,5.493c-1.385,1.8513 -2.912,3.6009 -4.581,5.2488c-1.65,1.6275 -3.441,2.9703 -5.376,4.0282c-1.914,1.0375 -3.654,1.5563 -5.222,1.5563c-1.568,0 -2.83,-0.4883 -3.787,-1.4648c-0.937,-0.9969 -1.405,-2.3701 -1.405,-4.1197c0,-1.77 0.427,-3.723 1.283,-5.8592c0.875,-2.1361 1.995,-4.018 3.359,-5.6455c1.364,-1.6479 2.84,-3.1229 4.429,-4.4249c3.318,-2.6651 6.23,-3.9976 8.734,-3.9976c1.12,0 1.965,0.2746 2.535,0.8239c0.204,0.1831 0.306,0.3459 0.306,0.4883l0,0.1831c0.285,-0.0407 0.733,-0.0611 1.343,-0.0611zm-3.084,4.0587l-0.214,0c-0.713,0 -1.069,-0.5188 -1.069,-1.5563c-1.486,0.4882 -3.044,1.3427 -4.673,2.5634c-1.629,1.2206 -3.084,2.6651 -4.367,4.3333c-2.606,3.3365 -3.93,6.1541 -3.97,8.453c0,1.1393 0.417,1.709 1.252,1.709c0.834,0 2.077,-0.5493 3.726,-1.6479c1.649,-1.0986 3.278,-2.6651 4.886,-4.6996c1.629,-2.0344 2.841,-3.7942 3.635,-5.2793c0.814,-1.5055 1.221,-2.5227 1.221,-3.0516c0,-0.5493 -0.142,-0.824 -0.427,-0.824z"/>
  <path id="svg_6" fill="white" d="m297.966,21.7277c0,1.4038 -0.784,3.4585 -2.351,6.1643c-1.568,2.6855 -3.584,5.4116 -6.048,8.1784c-2.443,2.7668 -5.039,5.1675 -7.788,7.2019c-2.748,2.0141 -4.896,3.0211 -6.444,3.0211c-0.835,0 -1.598,-0.3051 -2.29,-0.9155c-0.693,-0.6103 -1.039,-1.5766 -1.039,-2.899c0,-1.3427 0.631,-3.4484 1.894,-6.3169c1.262,-2.8686 2.504,-5.2895 3.726,-7.2629c-1.079,0.7934 -1.741,1.1901 -1.985,1.1901c-0.224,0 -0.52,-0.2645 -0.886,-0.7934c-0.346,-0.529 -0.519,-0.9359 -0.519,-1.2207c0,-0.3051 0.051,-0.5289 0.152,-0.6713c4.011,-4.4554 6.842,-6.6831 8.491,-6.6831c0.692,0 1.272,0.2034 1.741,0.6103c0.468,0.4069 0.702,0.8951 0.702,1.4648c0,0.5696 -0.692,2.2073 -2.077,4.9131c-1.384,2.7058 -2.769,5.4421 -4.153,8.2089c-1.385,2.7465 -2.077,4.4758 -2.077,5.1878c0,0.1221 0.061,0.1831 0.183,0.1831c0.53,0 1.955,-1.0477 4.276,-3.1432c2.341,-2.1158 4.235,-4.079 5.681,-5.8896c1.445,-1.8107 2.708,-3.6315 3.787,-5.4625c1.099,-1.831 1.649,-3.0313 1.649,-3.6009c0,-0.5697 -0.122,-1.0376 -0.367,-1.4038c-0.223,-0.3865 -0.335,-0.7934 -0.335,-1.2206c0,-0.4476 0.295,-0.9359 0.885,-1.4648c0.611,-0.5493 1.385,-0.824 2.321,-0.824c1.914,0 2.871,1.1495 2.871,3.4484z"/>
  <path id="svg_7" fill="white" d="m317.663,11.7183c0,1.1596 -0.54,2.3294 -1.619,3.5094c-1.079,1.1596 -2.209,1.7394 -3.39,1.7394c-1.16,0 -1.741,-0.6103 -1.741,-1.8309c0,-1.2207 0.509,-2.3803 1.527,-3.4789c1.039,-1.119 2.179,-1.67843 3.421,-1.67843c0.55,0 0.987,0.15263 1.313,0.45773c0.326,0.3052 0.489,0.7324 0.489,1.2817zm-4.948,26.6409c0,0.6103 -0.061,1.0477 -0.183,1.3122c-0.998,2.0344 -2.586,3.6823 -4.764,4.9436c-2.179,1.241 -4.073,1.8615 -5.681,1.8615c-1.609,0 -2.993,-0.5391 -4.154,-1.6173c-1.16,-1.0783 -1.741,-2.1769 -1.741,-3.2958c0,-1.119 0.56,-2.7465 1.68,-4.8826c1.12,-2.1362 2.24,-4.1096 3.36,-5.9202c1.12,-1.8107 1.679,-2.7872 1.679,-2.9296c0,-0.1628 -0.213,-0.4679 -0.641,-0.9155c-0.407,-0.4476 -0.611,-0.7731 -0.611,-0.9765c0,-0.2238 0.418,-0.7833 1.252,-1.6784c0.856,-0.9155 1.884,-1.8107 3.085,-2.6855c1.222,-0.8951 2.148,-1.3427 2.779,-1.3427c0.652,0 1.232,0.2848 1.741,0.8545c0.509,0.5696 0.764,1.0884 0.764,1.5563c0,0.4679 -2.423,4.8724 -7.269,13.2136c-0.061,0.1221 -0.234,0.3967 -0.519,0.824c-0.265,0.4068 -0.479,0.7527 -0.642,1.0375c-0.142,0.2645 -0.315,0.59 -0.519,0.9765c-0.407,0.8138 -0.611,1.4953 -0.611,2.0446c0,0.6917 0.469,1.0376 1.405,1.0376c0.937,0 1.904,-0.3153 2.902,-0.946c1.018,-0.651 1.893,-1.3631 2.626,-2.1362c1.914,-2.0547 3.003,-3.0821 3.268,-3.0821c0.53,0 0.794,0.9155 0.794,2.7465z"/>
  <path id="svg_8" fill="white" d="m334,22.3991c0,1.3427 -0.55,2.5227 -1.649,3.5399c-1.079,1.0172 -2.311,1.5258 -3.696,1.5258c-0.448,0 -0.743,-0.1017 -0.885,-0.3052c-0.143,-0.2238 -0.214,-0.5086 -0.214,-0.8544c0,-0.3459 0.041,-0.6816 0.122,-1.0071c-0.733,0.2442 -1.547,0.6205 -2.443,1.1291c-0.896,0.5086 -1.996,1.2614 -3.299,2.2582c-1.303,0.9969 -1.954,1.7395 -1.954,2.2277c0,0.1628 0.234,0.2442 0.702,0.2442c0.489,0 1.232,-0.1628 2.23,-0.4883c0.997,-0.3458 1.689,-0.5188 2.076,-0.5188c0.408,0 0.672,0.0204 0.794,0.0611c0.265,0.1424 0.55,0.4577 0.856,0.946c0.305,0.4679 0.458,0.8443 0.458,1.1291c0,0.2645 -0.265,0.6205 -0.794,1.0681c-0.53,0.4475 -1.13,0.7934 -1.802,1.0375c-0.672,0.2238 -1.12,0.3967 -1.344,0.5188c-4.296,2.4006 -6.444,4.0485 -6.444,4.9437c0,1.5868 1.354,2.3802 4.062,2.3802c1.73,0 3.471,-0.5493 5.222,-1.6478c1.487,-0.9359 2.82,-1.8819 4.001,-2.8381c1.201,-0.9765 1.955,-1.5767 2.26,-1.8004c0.326,-0.2238 0.57,-0.3357 0.733,-0.3357c0.53,0 0.794,0.59 0.794,1.7699c0,1.18 -0.071,1.9633 -0.214,2.3498c-0.142,0.3662 -0.549,0.8239 -1.221,1.3732c-4.357,3.5399 -8.481,5.3099 -12.369,5.3099c-2.077,0 -3.737,-0.2848 -4.979,-0.8545c-2.28,-1.0375 -3.42,-2.6244 -3.42,-4.7605c0,-2.8075 1.944,-4.9335 5.833,-6.378c-0.774,-0.3458 -1.272,-0.7832 -1.496,-1.3122c-0.224,-0.5493 -0.336,-1.4139 -0.336,-2.5939c0,-1.2003 0.549,-2.4616 1.649,-3.784c1.12,-1.3427 2.484,-2.4413 4.092,-3.2958c3.584,-1.9327 6.781,-2.899 9.59,-2.899c0.672,0 1.354,0.1627 2.047,0.4882c0.692,0.3255 1.038,0.7833 1.038,1.3733z"/>
  <path id="svg_9" fill="white" d="m79.3276,42.5048l-9.6984,-15.1527l-4.413,0l0,15.1527l-3.2162,0l0,-35.5048l11.344,0c1.2134,0 2.3519,0.23109 3.4157,0.69326c1.0637,0.44567 1.9945,1.06465 2.7923,1.85695c0.7979,0.79229 1.4212,1.72489 1.8699,2.79779c0.4654,1.0564 0.6981,2.1871 0.6981,3.392l0,2.8721c0,1.205 -0.2327,2.3439 -0.6981,3.4168c-0.4487,1.0564 -1.072,1.9807 -1.8699,2.773c-0.7978,0.7923 -1.7286,1.4196 -2.7923,1.8817c-1.0638,0.4457 -2.2023,0.6685 -3.4157,0.6685l9.6985,15.1527l-3.7149,0zm-0.4238,-26.7648c0,-0.7923 -0.1496,-1.5268 -0.4488,-2.2035c-0.2992,-0.6933 -0.7064,-1.2958 -1.2216,-1.8075c-0.5153,-0.5282 -1.122,-0.9408 -1.8201,-1.2379c-0.6814,-0.2972 -1.4211,-0.4457 -2.2189,-0.4457l-7.9782,0l0,14.2613l7.9782,0c0.7978,0 1.5375,-0.1485 2.2189,-0.4456c0.6981,-0.2971 1.3048,-0.7015 1.8201,-1.2132c0.5152,-0.5282 0.9224,-1.1307 1.2216,-1.8075c0.2992,-0.6932 0.4488,-1.436 0.4488,-2.2283l0,-2.8721z"/>
  <path id="svg_10" fill="white" d="m107.274,35.5475c0,1.0233 -0.199,1.989 -0.598,2.8968c-0.382,0.9078 -0.914,1.7001 -1.596,2.3769c-0.681,0.6767 -1.479,1.2132 -2.393,1.6093c-0.914,0.3797 -1.887,0.5695 -2.9172,0.5695l-2.0444,0c-1.0305,0 -2.0029,-0.1898 -2.9171,-0.5695c-0.9141,-0.3961 -1.7119,-0.9326 -2.3934,-1.6093c-0.6815,-0.6768 -1.2217,-1.4691 -1.6206,-2.3769c-0.3823,-0.9078 -0.5734,-1.8735 -0.5734,-2.8968l0,-11.4388c0,-1.0234 0.1911,-1.989 0.5734,-2.8969c0.3989,-0.9078 0.9391,-1.7001 1.6206,-2.3769c0.6815,-0.6767 1.4793,-1.2049 2.3934,-1.5846c0.9142,-0.3961 1.8866,-0.5942 2.9171,-0.5942l2.0444,0c1.0302,0 2.0032,0.1981 2.9172,0.5942c0.914,0.3797 1.712,0.9079 2.393,1.5846c0.682,0.6768 1.214,1.4691 1.596,2.3769c0.399,0.9079 0.598,1.8735 0.598,2.8969l0,5.967l-13.9865,0l0,5.6451c0,0.6107 0.1163,1.1884 0.349,1.7331c0.2327,0.5282 0.5485,0.9904 0.9475,1.3865c0.3989,0.3962 0.8643,0.7098 1.3961,0.9409c0.5485,0.2311 1.1303,0.3466 1.7453,0.3466l2.0444,0c0.6152,0 1.1882,-0.1155 1.7202,-0.3466c0.549,-0.2311 1.022,-0.5447 1.421,-0.9409c0.399,-0.3961 0.715,-0.8583 0.948,-1.3865c0.232,-0.5447 0.349,-1.1224 0.349,-1.7331l0,-1.6837l3.066,0.4952l0,1.0152zm-3.066,-11.6121c0,-0.6108 -0.117,-1.1802 -0.349,-1.7084c-0.233,-0.5447 -0.549,-1.0152 -0.948,-1.4113c-0.399,-0.3962 -0.872,-0.7098 -1.421,-0.9409c-0.532,-0.2311 -1.105,-0.3466 -1.7202,-0.3466l-2.0444,0c-0.615,0 -1.1968,0.1155 -1.7453,0.3466c-0.5318,0.2311 -0.9972,0.5447 -1.3961,0.9409c-0.399,0.3961 -0.7148,0.8666 -0.9475,1.4113c-0.2327,0.5282 -0.349,1.0976 -0.349,1.7084l0,3.7634l10.9205,0l0,-3.7634z"/>
  <path id="svg_11" fill="white" d="m131.481,42.5048l-1.695,-2.5254c-0.698,0.9078 -1.571,1.6423 -2.618,2.2035c-1.047,0.5447 -2.194,0.8171 -3.441,0.8171l-0.773,0c-1.03,0 -2.002,-0.1898 -2.917,-0.5695c-0.914,-0.3961 -1.712,-0.9326 -2.393,-1.6093c-0.682,-0.6768 -1.222,-1.4691 -1.621,-2.3769c-0.382,-0.9078 -0.573,-1.8735 -0.573,-2.8968l0,-0.2476c0,-1.0234 0.191,-1.989 0.573,-2.8969c0.399,-0.9078 0.939,-1.7001 1.621,-2.3769c0.681,-0.6767 1.479,-1.2049 2.393,-1.5846c0.915,-0.3961 1.887,-0.5942 2.917,-0.5942l6.483,0l0,-3.9119c0,-0.6108 -0.117,-1.1802 -0.349,-1.7084c-0.233,-0.5447 -0.549,-1.0152 -0.948,-1.4113c-0.399,-0.3962 -0.872,-0.7098 -1.421,-0.9409c-0.532,-0.2311 -1.105,-0.3466 -1.72,-0.3466l-1.795,0c-0.615,0 -1.197,0.1155 -1.745,0.3466c-0.532,0.2311 -0.998,0.5447 -1.397,0.9409c-0.399,0.3961 -0.714,0.8666 -0.947,1.4113c-0.233,0.5282 -0.349,1.0976 -0.349,1.7084l0,0.916l-3.067,-0.4951l0,-0.2476c0,-1.0234 0.191,-1.989 0.574,-2.8969c0.399,-0.9078 0.939,-1.7001 1.62,-2.3769c0.682,-0.6767 1.48,-1.2049 2.394,-1.5846c0.914,-0.3961 1.886,-0.5942 2.917,-0.5942l1.795,0c1.03,0 2.003,0.1981 2.917,0.5942c0.914,0.3797 1.712,0.9079 2.393,1.5846c0.682,0.6768 1.214,1.4691 1.596,2.3769c0.399,0.9079 0.598,1.8735 0.598,2.8969l0,18.3961l-1.022,0zm-2.044,-12.2806l-6.483,0c-0.615,0 -1.196,0.1156 -1.745,0.3466c-0.532,0.2311 -0.997,0.553 -1.396,0.9657c-0.399,0.3961 -0.715,0.8665 -0.947,1.4112c-0.233,0.5282 -0.349,1.0977 -0.349,1.7084l0,1.0647c0,0.6107 0.116,1.1884 0.349,1.7331c0.232,0.5282 0.548,0.9904 0.947,1.3865c0.399,0.3962 0.864,0.7098 1.396,0.9409c0.549,0.2311 1.13,0.3466 1.745,0.3466l2.045,0c0.615,0 1.188,-0.1155 1.72,-0.3466c0.549,-0.2311 1.022,-0.5447 1.421,-0.9409c0.399,-0.3961 0.715,-0.8583 0.948,-1.3865c0.232,-0.5447 0.349,-1.1224 0.349,-1.7331l0,-5.4966z"/>
  <path id="svg_12" fill="white" d="m157.732,35.5475c0,1.0233 -0.199,1.989 -0.598,2.8968c-0.382,0.9078 -0.914,1.7001 -1.596,2.3769c-0.681,0.6767 -1.479,1.2132 -2.393,1.6093c-0.914,0.3797 -1.887,0.5695 -2.917,0.5695l-2.045,0c-1.03,0 -2.002,-0.1898 -2.917,-0.5695c-0.914,-0.3961 -1.712,-0.9326 -2.393,-1.6093c-0.681,-0.6768 -1.222,-1.4691 -1.621,-2.3769c-0.382,-0.9078 -0.573,-1.8735 -0.573,-2.8968l0,-11.4388c0,-1.0234 0.191,-1.989 0.573,-2.8969c0.399,-0.9078 0.94,-1.7001 1.621,-2.3769c0.681,-0.6767 1.479,-1.2049 2.393,-1.5846c0.915,-0.3961 1.887,-0.5942 2.917,-0.5942l2.045,0c1.03,0 2.003,0.1981 2.917,0.5942c0.914,0.3797 1.712,0.9079 2.393,1.5846c0.682,0.6768 1.214,1.4691 1.596,2.3769c0.399,0.9079 0.598,1.8735 0.598,2.8969l0,1.0151l-3.066,0.4952l0,-1.6836c0,-0.6108 -0.117,-1.1802 -0.349,-1.7084c-0.233,-0.5447 -0.549,-1.0152 -0.948,-1.4113c-0.399,-0.3962 -0.872,-0.7098 -1.421,-0.9409c-0.532,-0.2311 -1.105,-0.3466 -1.72,-0.3466l-2.045,0c-0.615,0 -1.196,0.1155 -1.745,0.3466c-0.532,0.2311 -0.997,0.5447 -1.396,0.9409c-0.399,0.3961 -0.715,0.8666 -0.947,1.4113c-0.233,0.5282 -0.349,1.0976 -0.349,1.7084l0,11.7854c0,0.6107 0.116,1.1884 0.349,1.7331c0.232,0.5282 0.548,0.9904 0.947,1.3865c0.399,0.3962 0.864,0.7098 1.396,0.9409c0.549,0.2311 1.13,0.3466 1.745,0.3466l2.045,0c0.615,0 1.188,-0.1155 1.72,-0.3466c0.549,-0.2311 1.022,-0.5447 1.421,-0.9409c0.399,-0.3961 0.715,-0.8583 0.948,-1.3865c0.232,-0.5447 0.349,-1.1224 0.349,-1.7331l0,-1.6837l3.066,0.4952l0,1.0152z"/>
  <path id="svg_13" fill="white" d="m175.208,42.5048c-0.931,0 -1.812,-0.1733 -2.643,-0.5199c-0.815,-0.3467 -1.529,-0.8253 -2.144,-1.4361c-0.599,-0.6107 -1.081,-1.3205 -1.446,-2.1293c-0.349,-0.8088 -0.524,-1.6753 -0.524,-2.5997l0,-15.7717l-4.587,0l0,-2.8968l4.587,0l0,-6.0908l3.067,-0.4952l0,6.586l6.482,0l0,2.8968l-6.482,0l0,15.9203c0,0.5117 0.091,0.9903 0.274,1.436c0.199,0.4292 0.465,0.8088 0.798,1.1389c0.332,0.3302 0.723,0.5943 1.172,0.7923c0.448,0.1816 0.93,0.2724 1.446,0.2724l2.792,0l0,2.8968l-2.792,0z"/>
  <rect stroke="#000" id="svg_14" height="50" width="132" y="1" x="53" fill="#fff"/>
  <text font-style="normal" font-weight="normal" xml:space="preserve" text-anchor="start" font-family="'Anton'" font-size="30" stroke-width="0" id="svg_15" y="39" x="66" stroke="#000" fill="#000000">BledTube</text>
 </g>
</svg>